<svg xmlns="http://www.w3.org/2000/svg" viewBox="0 0 1200 630" width="1200" height="630">
  <defs>
    <radialGradient id="g" cx="50%" cy="50%" r="70%">
      <stop offset="0%" stop-color="#393e46"/>
      <stop offset="100%" stop-color="#0d1117"/>
    </radialGradient>
  </defs>
  <rect width="1200" height="630" fill="url(#g)"/>
  <!-- Grid dots -->
  <g fill="#00adb5" opacity="0.12">
    <rect x="0" y="0" width="1200" height="630" fill="none"/>
    <!-- Dot grid pattern -->
    <circle cx="100" cy="80"  r="1.5"/><circle cx="200" cy="80"  r="1.5"/><circle cx="300" cy="80"  r="1.5"/>
    <circle cx="400" cy="80"  r="1.5"/><circle cx="500" cy="80"  r="1.5"/><circle cx="600" cy="80"  r="1.5"/>
    <circle cx="700" cy="80"  r="1.5"/><circle cx="800" cy="80"  r="1.5"/><circle cx="900" cy="80"  r="1.5"/>
    <circle cx="1000" cy="80" r="1.5"/><circle cx="1100" cy="80" r="1.5"/>
    <circle cx="100" cy="160" r="1.5"/><circle cx="200" cy="160" r="1.5"/><circle cx="300" cy="160" r="1.5"/>
    <circle cx="400" cy="160" r="1.5"/><circle cx="500" cy="160" r="1.5"/><circle cx="600" cy="160" r="1.5"/>
    <circle cx="700" cy="160" r="1.5"/><circle cx="800" cy="160" r="1.5"/><circle cx="900" cy="160" r="1.5"/>
    <circle cx="1000" cy="160" r="1.5"/><circle cx="1100" cy="160" r="1.5"/>
    <circle cx="100" cy="240" r="1.5"/><circle cx="200" cy="240" r="1.5"/><circle cx="300" cy="240" r="1.5"/>
    <circle cx="400" cy="240" r="1.5"/><circle cx="500" cy="240" r="1.5"/><circle cx="600" cy="240" r="1.5"/>
    <circle cx="700" cy="240" r="1.5"/><circle cx="800" cy="240" r="1.5"/><circle cx="900" cy="240" r="1.5"/>
    <circle cx="1000" cy="240" r="1.5"/><circle cx="1100" cy="240" r="1.5"/>
    <circle cx="100" cy="320" r="1.5"/><circle cx="200" cy="320" r="1.5"/><circle cx="300" cy="320" r="1.5"/>
    <circle cx="400" cy="320" r="1.5"/><circle cx="500" cy="320" r="1.5"/><circle cx="600" cy="320" r="1.5"/>
    <circle cx="700" cy="320" r="1.5"/><circle cx="800" cy="320" r="1.5"/><circle cx="900" cy="320" r="1.5"/>
    <circle cx="1000" cy="320" r="1.5"/><circle cx="1100" cy="320" r="1.5"/>
    <circle cx="100" cy="400" r="1.5"/><circle cx="200" cy="400" r="1.5"/><circle cx="300" cy="400" r="1.5"/>
    <circle cx="400" cy="400" r="1.5"/><circle cx="500" cy="400" r="1.5"/><circle cx="600" cy="400" r="1.5"/>
    <circle cx="700" cy="400" r="1.5"/><circle cx="800" cy="400" r="1.5"/><circle cx="900" cy="400" r="1.5"/>
    <circle cx="1000" cy="400" r="1.5"/><circle cx="1100" cy="400" r="1.5"/>
    <circle cx="100" cy="480" r="1.5"/><circle cx="200" cy="480" r="1.5"/><circle cx="300" cy="480" r="1.5"/>
    <circle cx="400" cy="480" r="1.5"/><circle cx="500" cy="480" r="1.5"/><circle cx="600" cy="480" r="1.5"/>
    <circle cx="700" cy="480" r="1.5"/><circle cx="800" cy="480" r="1.5"/><circle cx="900" cy="480" r="1.5"/>
    <circle cx="1000" cy="480" r="1.5"/><circle cx="1100" cy="480" r="1.5"/>
    <circle cx="100" cy="560" r="1.5"/><circle cx="200" cy="560" r="1.5"/><circle cx="300" cy="560" r="1.5"/>
    <circle cx="400" cy="560" r="1.5"/><circle cx="500" cy="560" r="1.5"/><circle cx="600" cy="560" r="1.5"/>
    <circle cx="700" cy="560" r="1.5"/><circle cx="800" cy="560" r="1.5"/><circle cx="900" cy="560" r="1.5"/>
    <circle cx="1000" cy="560" r="1.5"/><circle cx="1100" cy="560" r="1.5"/>
  </g>
  <!-- Teal accent line -->
  <line x1="0" y1="315" x2="1200" y2="315" stroke="#00adb5" stroke-width="1" opacity="0.15"/>
</svg>
